<svg width="181" height="41" viewBox="0 0 181 41" fill="none" xmlns="http://www.w3.org/2000/svg">
<path d="M21.9749 10.25C21.9749 15.9109 17.0557 20.5 10.9875 20.5H0V10.25C0 4.58908 4.91925 0 10.9875 0C17.0557 0 21.9749 4.58908 21.9749 10.25Z" fill="#14212D"/>
<path d="M21.9749 30.75C21.9749 25.0891 26.8942 20.5 32.9624 20.5H43.9499V30.75C43.9499 36.4109 39.0306 41 32.9624 41C26.8942 41 21.9749 36.4109 21.9749 30.75Z" fill="#14212D"/>
<path d="M0 30.75C0 36.4109 4.91925 41 10.9875 41H21.9749V30.75C21.9749 25.0891 17.0557 20.5 10.9875 20.5C4.91925 20.5 0 25.0891 0 30.75Z" fill="#14212D"/>
<path d="M43.9499 10.25C43.9499 4.58908 39.0306 0 32.9624 0H21.9749V10.25C21.9749 15.9109 26.8942 20.5 32.9624 20.5C39.0306 20.5 43.9499 15.9109 43.9499 10.25Z" fill="#14212D"/>
<path d="M56.5899 32.8594V10.7335H70.5036V14.5904H61.0328V19.8626H69.5801V23.7195H61.0328V32.8594H56.5899Z" fill="#14212D"/>
<path d="M73.41 32.8594V16.265H77.7811V32.8594H73.41ZM75.6058 14.1258C74.9559 14.1258 74.3984 13.8989 73.9333 13.4452C73.4749 12.9842 73.2458 12.4332 73.2458 11.7922C73.2458 11.1584 73.4749 10.6146 73.9333 10.1609C74.3984 9.69991 74.9559 9.46943 75.6058 9.46943C76.2556 9.46943 76.8097 9.69991 77.268 10.1609C77.7332 10.6146 77.9658 11.1584 77.9658 11.7922C77.9658 12.4332 77.7332 12.9842 77.268 13.4452C76.8097 13.8989 76.2556 14.1258 75.6058 14.1258Z" fill="#14212D"/>
<path d="M89.6657 16.265V19.7221H80.1744V16.265H89.6657ZM82.3292 12.2892H86.7003V27.7601C86.7003 28.185 86.7619 28.5163 86.885 28.754C87.0081 28.9845 87.1792 29.1466 87.3981 29.2402C87.6238 29.3338 87.8837 29.3806 88.1779 29.3806C88.3831 29.3806 88.5883 29.3626 88.7935 29.3266C88.9987 29.2834 89.1561 29.251 89.2655 29.2294L89.953 32.6542C89.7341 32.7262 89.4263 32.809 89.0295 32.9026C88.6328 33.0035 88.1505 33.0647 87.5827 33.0863C86.5293 33.1295 85.6058 32.9819 84.8123 32.6433C84.0257 32.3048 83.4134 31.7791 82.9756 31.066C82.5378 30.353 82.3224 29.4527 82.3292 28.3651V12.2892Z" fill="#14212D"/>
<path d="M92.9338 32.8594V10.7335H101.225C102.818 10.7335 104.176 11.054 105.298 11.695C106.42 12.3288 107.275 13.2111 107.863 14.3419C108.458 15.4655 108.756 16.7619 108.756 18.2312C108.756 19.7005 108.455 20.997 107.853 22.1206C107.251 23.2441 106.379 24.1192 105.237 24.7458C104.101 25.3725 102.726 25.6858 101.112 25.6858H95.8273V21.9369H100.393C101.248 21.9369 101.953 21.782 102.507 21.4723C103.068 21.1554 103.485 20.7197 103.759 20.1651C104.039 19.6033 104.18 18.9587 104.18 18.2312C104.18 17.4966 104.039 16.8556 103.759 16.3082C103.485 15.7536 103.068 15.325 102.507 15.0225C101.946 14.7128 101.235 14.558 100.373 14.558H97.3767V32.8594H92.9338Z" fill="#14212D"/>
<path d="M115.931 10.7335V32.8594H111.56V10.7335H115.931Z" fill="#14212D"/>
<path d="M123.927 33.1727C122.921 33.1727 122.025 32.9891 121.238 32.6217C120.452 32.2472 119.829 31.6962 119.371 30.9688C118.919 30.2341 118.694 29.3194 118.694 28.2246C118.694 27.3027 118.854 26.5285 119.176 25.9018C119.497 25.2752 119.935 24.7711 120.489 24.3893C121.043 24.0076 121.673 23.7195 122.377 23.525C123.089 23.3306 123.834 23.1937 124.614 23.1145C125.531 23.0137 126.27 22.92 126.83 22.8336C127.391 22.74 127.798 22.6031 128.051 22.4231C128.305 22.243 128.431 21.9765 128.431 21.6236V21.5588C128.431 20.8745 128.226 20.3451 127.815 19.9706C127.412 19.5961 126.837 19.4088 126.092 19.4088C125.305 19.4088 124.679 19.5925 124.214 19.9598C123.749 20.3199 123.441 20.7737 123.29 21.3211L119.248 20.9754C119.453 19.967 119.857 19.0955 120.458 18.3609C121.06 17.619 121.837 17.05 122.788 16.6539C123.745 16.2505 124.854 16.0489 126.112 16.0489C126.988 16.0489 127.826 16.1569 128.626 16.373C129.433 16.5891 130.148 16.924 130.771 17.3777C131.4 17.8315 131.896 18.4149 132.258 19.1279C132.621 19.8338 132.802 20.6801 132.802 21.6668V32.8594H128.657V30.5582H128.534C128.281 31.0768 127.942 31.5342 127.518 31.9303C127.094 32.3192 126.584 32.6253 125.989 32.8486C125.394 33.0647 124.706 33.1727 123.927 33.1727ZM125.178 29.9964C125.821 29.9964 126.389 29.8632 126.882 29.5967C127.374 29.323 127.761 28.9557 128.041 28.4947C128.322 28.0338 128.462 27.5116 128.462 26.9282V25.1672C128.325 25.2608 128.137 25.3473 127.898 25.4265C127.665 25.4985 127.402 25.5669 127.107 25.6318C126.813 25.6894 126.519 25.7434 126.225 25.7938C125.931 25.837 125.664 25.8766 125.425 25.9126C124.912 25.9919 124.464 26.1179 124.081 26.2908C123.697 26.4636 123.4 26.6977 123.188 26.993C122.976 27.2811 122.87 27.6412 122.87 28.0734C122.87 28.7 123.085 29.179 123.516 29.5103C123.954 29.8344 124.508 29.9964 125.178 29.9964Z" fill="#14212D"/>
<path d="M140.565 23.2657V32.8594H136.193V16.265H140.359V19.1928H140.544C140.893 18.2276 141.478 17.4642 142.299 16.9024C143.12 16.3334 144.115 16.0489 145.285 16.0489C146.379 16.0489 147.333 16.301 148.147 16.8051C148.961 17.3093 149.594 18.0296 150.046 18.9659C150.497 19.895 150.723 21.0042 150.723 22.2934V32.8594H146.352V23.1145C146.359 22.0989 146.112 21.3067 145.613 20.7377C145.114 20.1615 144.426 19.8734 143.55 19.8734C142.962 19.8734 142.442 20.0066 141.991 20.2731C141.546 20.5396 141.197 20.9285 140.944 21.4399C140.698 21.9441 140.571 22.5527 140.565 23.2657Z" fill="#14212D"/>
<path d="M161.35 33.1835C159.729 33.1835 158.334 32.8378 157.164 32.1464C156.001 31.4477 155.105 30.461 154.476 29.1862C153.846 27.9041 153.532 26.388 153.532 24.6378C153.532 22.9308 153.846 21.4327 154.476 20.1435C155.105 18.8542 155.991 17.8495 157.133 17.1292C158.282 16.409 159.63 16.0489 161.176 16.0489C162.216 16.0489 163.184 16.2253 164.08 16.5783C164.983 16.924 165.769 17.4462 166.44 18.1448C167.117 18.8434 167.644 19.7221 168.02 20.7809C168.396 21.8325 168.584 23.0641 168.584 24.4758V25.7398H155.276V22.8876H164.47C164.47 22.225 164.333 21.638 164.059 21.1266C163.786 20.6152 163.406 20.2155 162.92 19.9274C162.442 19.6321 161.884 19.4845 161.248 19.4845C160.584 19.4845 159.996 19.6465 159.483 19.9706C158.977 20.2875 158.58 20.7161 158.293 21.2563C158.005 21.7892 157.858 22.3834 157.852 23.0389V25.7506C157.852 26.5717 157.995 27.2811 158.283 27.8789C158.577 28.4767 158.99 28.9377 159.524 29.2618C160.058 29.5859 160.69 29.748 161.422 29.748C161.908 29.748 162.353 29.6759 162.756 29.5319C163.16 29.3878 163.505 29.1718 163.793 28.8837C164.08 28.5956 164.299 28.2426 164.449 27.8249L168.492 28.1058C168.287 29.1285 167.866 30.0216 167.23 30.7851C166.601 31.5414 165.787 32.132 164.788 32.5569C163.796 32.9747 162.65 33.1835 161.35 33.1835Z" fill="#14212D"/>
<path d="M171.437 32.8594V16.265H175.675V19.1603H175.839C176.126 18.1304 176.608 17.3525 177.286 16.8267C177.963 16.2938 178.743 16.0273 179.625 16.0273C179.844 16.0273 180.08 16.0417 180.333 16.0705C180.586 16.0993 180.808 16.1389 181 16.1893V20.2731C180.795 20.2083 180.511 20.1507 180.148 20.1003C179.786 20.0498 179.454 20.0246 179.153 20.0246C178.51 20.0246 177.935 20.1723 177.429 20.4676C176.93 20.7557 176.533 21.159 176.239 21.6776C175.952 22.1962 175.808 22.794 175.808 23.471V32.8594H171.437Z" fill="#14212D"/>
</svg>
