<svg width="273" height="78" viewBox="0 0 273 78" fill="none" xmlns="http://www.w3.org/2000/svg">
<g clip-path="url(#clip0_298_1983)">
<path d="M50 23.375L40.625 14C36.3103 18.3147 29.3147 18.3147 25 14L18.75 20.25L28.125 29.625L15.625 42.125L6.25 32.75L0 39C4.31472 43.3147 4.31472 50.3103 0 54.625L9.375 64C13.6897 59.6853 20.6853 59.6853 25 64L31.25 57.75L21.875 48.375L34.375 35.875L43.75 45.25L50 39C45.6853 34.6853 45.6853 27.6897 50 23.375Z" fill="black"/>
</g>
<path d="M77.8135 60L76.6375 53.784H67.7895L66.6135 60H58.9975L66.5575 20.8H78.1495L85.3175 60H77.8135ZM72.1015 28.08L69.9175 41.128L68.6855 47.792H75.6855L74.3975 41.128L72.2135 28.08H72.1015ZM125.36 20.8L117.408 60H106.88L98.9284 20.8H106.992L110.072 38.944L111.976 50.704H112.312L114.216 38.944L117.296 20.8H125.36ZM143.352 60V20.8H163.456V27.52H151.024V36.872H162.112V43.368H151.024V53.504H163.68V60H143.352ZM183.016 20.8H197.912C200.264 21.584 202.261 23.04 203.904 25.168C205.584 27.2587 206.424 29.8347 206.424 32.896C206.424 37.8987 204.445 41.576 200.488 43.928L206.144 60H198.304L193.544 45.72H190.576V60H183.016V20.8ZM190.576 27.52V39.448H195.392C196.027 39.2987 196.717 38.664 197.464 37.544C198.248 36.3867 198.64 35.0427 198.64 33.512C198.64 31.9813 198.304 30.6373 197.632 29.48C196.997 28.3227 196.363 27.6693 195.728 27.52H190.576ZM225.469 60V20.8H233.141V60H225.469ZM257.124 20.8H270.564V27.52H259.812L259.644 27.856L268.604 44.208C270.433 47.4933 271.348 49.9947 271.348 51.712C271.348 55.4827 270.097 58.2453 267.596 60H252.756V53.504H264.348L264.516 53.168L254.436 35.08C252.98 32.4667 252.252 30.3387 252.252 28.696C252.252 24.8133 253.876 22.1813 257.124 20.8Z" fill="#616161"/>
<defs>
<clipPath id="clip0_298_1983">
<rect width="50" height="50" fill="white" transform="translate(0 14)"/>
</clipPath>
</defs>
</svg>
